Coordinates
version=1
nRows=29
nColumns=22
inDegrees=yes

Units are S.I. units (second, meters, Newtons, ...)
If the header above contains a line with 'inDegrees', this indicates whether rotational values are in degrees (yes) or radians (no).

endheader
time	pelvis_tilt	pelvis_list	pelvis_rotation	pelvis_tx	pelvis_ty	pelvis_tz	hip_flexion_r	hip_adduction_r	hip_rotation_r	knee_angle_r	ankle_angle_r	subtalar_angle_r	hip_flexion_l	hip_adduction_l	hip_rotation_l	knee_angle_l	ankle_angle_l	subtalar_angle_l	lumbar_extension	lumbar_bending	lumbar_rotation
      3.88000000	     -0.68516148	      0.23873226	    -93.00231102	      0.58620748	      0.90466057	      0.69305417	    -12.32550993	      3.94030479	      7.40692398	    -25.82991375	      8.80514119	      0.02998120	     29.18105554	     -2.19943392	     -4.83513581	    -26.86825391	     -1.63754959	     -0.37697455	     -0.56483937	     -3.63684990	      4.98216702
      3.89000000	     -0.33998023	      0.14316595	    -93.31161517	      0.58751477	      0.90649363	      0.70228525	    -12.15924502	      3.31751312	      6.93831760	    -26.97331918	      7.13475920	      0.56288697	     28.54934226	     -1.85584062	     -5.11835979	    -27.11712723	     -1.23209966	     -0.26407798	     -0.55887231	     -4.14767390	      5.23889378
      3.90000000	     -0.06448729	      0.05477461	    -93.68204519	      0.58869645	      0.90830357	      0.71120234	    -11.83977692	      2.73217089	      6.42065273	    -28.29621911	      5.41401519	      1.09216245	     27.87565527	     -1.60575830	     -5.52379607	    -27.25839079	     -0.73803343	     -0.25631341	     -0.57200614	     -4.55949079	      5.49348652
      3.91000000	      0.15354142	      0.00042527	    -94.14251321	      0.58969112	      0.91003269	      0.71972894	    -11.30285276	      2.16769859	      5.87475770	    -29.84971005	      3.68080583	      1.48066639	     27.19343803	     -1.44294161	     -6.02471437	    -27.29119865	     -0.27783130	     -0.33833864	     -0.57457926	     -4.89215675	      5.82859768
      3.92000000	      0.32890238	     -0.05268625	    -94.67133775	      0.59055423	      0.91166030	      0.72790277	    -10.58909407	      1.59577846	      5.25854178	    -31.62869508	      2.04105971	      1.98071405	     26.49930232	     -1.35335653	     -6.67108181	    -27.27808724	      0.26335107	     -0.55035957	     -0.60356336	     -5.15872999	      6.15510191
      3.93000000	      0.47733065	     -0.08113775	    -95.28792973	      0.59125745	      0.91315999	      0.73568340	     -9.65545050	      1.00051330	      4.61243404	    -33.65018577	      0.49596145	      2.37885726	     25.81258420	     -1.31306739	     -7.38373882	    -27.19954821	      0.75413415	     -0.73947102	     -0.63004391	     -5.38169304	      6.55356381
      3.94000000	      0.63208316	     -0.09974359	    -95.95110260	      0.59188568	      0.91447317	      0.74309514	     -8.52652879	      0.34394455	      3.90647675	    -35.90113452	     -0.86719376	      2.92683612	     25.17005991	     -1.28561319	     -8.20180085	    -27.14495262	      1.29527464	     -1.01888279	     -0.67091651	     -5.59965511	      6.90773832
      3.95000000	      0.80124757	     -0.11663806	    -96.65666594	      0.59245359	      0.91563690	      0.75016566	     -7.22594834	     -0.38464676	      3.16053866	    -38.34006838	     -2.08954218	      3.47332336	     24.54286730	     -1.24255973	     -9.03412816	    -27.07168774	      1.81269576	     -1.26322364	     -0.72988153	     -5.82738522	      7.27489455
      3.96000000	      1.01041886	     -0.14507332	    -97.37906327	      0.59301552	      0.91664749	      0.75693162	     -5.78937189	     -1.21085382	      2.38971300	    -40.92202842	     -3.16002934	      4.00395393	     23.93617689	     -1.14884932	     -9.87551827	    -27.00514055	      2.30247386	     -1.46574891	     -0.81546542	     -6.09598466	      7.61568320
      3.97000000	      1.26915222	     -0.19207611	    -98.09161402	      0.59358452	      0.91752421	      0.76343079	     -4.25361883	     -2.13034882	      1.62998707	    -43.58924576	     -4.08750234	      4.47944591	     23.34439957	     -0.98391029	    -10.69785852	    -26.93971623	      2.76619387	     -1.63865332	     -0.93133727	     -6.42615996	      7.89794646
      3.98000000	      1.57359377	     -0.26359953	    -98.76853881	      0.59419682	      0.91828316	      0.76971915	     -2.66006938	     -3.12686458	      0.90310385	    -46.27478792	     -4.87334609	      4.85099983	     22.76267419	     -0.73753387	    -11.46338942	    -26.87505529	      3.21438330	     -1.80560290	     -1.07560288	     -6.81511448	      8.11336703
      3.99000000	      1.91768428	     -0.37684085	    -99.39323610	      0.59486786	      0.91898104	      0.77584283	     -1.06190291	     -4.18224279	      0.22855880	    -48.91387511	     -5.49773006	      5.02434882	     22.16580045	     -0.40704976	    -12.16222090	    -26.79709581	      3.62486093	     -1.95046113	     -1.26613312	     -7.25863166	      8.24431042
      4.00000000	      2.28483347	     -0.53241890	    -99.94561183	      0.59559220	      0.91964818	      0.78184901	      0.50794252	     -5.26208502	     -0.39262138	    -51.45009078	     -5.92858253	      4.97288496	     21.54723400	     -0.00343648	    -12.77576047	    -26.70262446	      4.00541326	     -2.09109013	     -1.49836415	     -7.74402290	      8.29102405
      4.01000000	      2.66038133	     -0.72068048	   -100.41877134	      0.59636637	      0.92029453	      0.78774374	      2.03842017	     -6.32625712	     -0.93279802	    -53.84978519	     -6.11029015	      4.67210150	     20.91108403	      0.45657213	    -13.30560262	    -26.58309604	      4.36042681	     -2.26797732	     -1.76440250	     -8.25067994	      8.22139879
      4.02000000	      3.00912378	     -0.93789273	   -100.80920534	      0.59715075	      0.92095414	      0.79353727	      3.50475631	     -7.31133014	     -1.38415899	    -56.06696212	     -6.02924278	      4.04702736	     20.25045948	      0.93601061	    -13.72763426	    -26.43749958	      4.73713635	     -2.53576321	     -2.06230215	     -8.74022871	      8.04574856
      4.03000000	      3.32211672	     -1.19430662	   -101.12173980	      0.59793407	      0.92166459	      0.79919375	      4.89336838	     -8.20030930	     -1.74766930	    -58.09748512	     -5.69701261	      3.39065763	     19.55717928	      1.41817645	    -14.06284962	    -26.27464361	      5.05755830	     -2.77133346	     -2.41229153	     -9.20635703	      7.80837324
      4.04000000	      3.57824907	     -1.46487220	   -101.36301484	      0.59868005	      0.92240415	      0.80467853	      6.22255492	     -8.94099927	     -2.00967517	    -59.93061577	     -5.15356842	      2.72211368	     18.85883560	      1.86500752	    -14.32522739	    -26.10916349	      5.35276040	     -3.03186894	     -2.79204364	     -9.61900565	      7.48642988
      4.05000000	      3.76457728	     -1.73610078	   -101.54635209	      0.59934781	      0.92317103	      0.80995899	      7.50124632	     -9.49998632	     -2.16615378	    -61.55790064	     -4.47424277	      2.09194731	     18.16615278	      2.25205144	    -14.51691703	    -25.94390451	      5.63789741	     -3.31803841	     -3.18910310	     -9.96185527	      7.09340910
      4.06000000	      3.87453805	     -1.99269959	   -101.68214154	      0.59991868	      0.92396652	      0.81502024	      8.73837429	     -9.85073274	     -2.20640031	    -62.97023125	     -3.73542412	      1.62069415	     17.48544948	      2.56264594	    -14.64592350	    -25.76685514	      5.88555709	     -3.57443639	     -3.58744318	    -10.22171111	      6.63372963
      4.07000000	      3.89354721	     -2.24349117	   -101.76506650	      0.60039880	      0.92477562	      0.81981042	      9.91943909	     -9.99296915	     -2.18910459	    -64.17060047	     -3.03641804	      1.12081574	     16.84717817	      2.76900418	    -14.72377222	    -25.66361812	      6.17166569	     -3.91232385	     -4.01266283	    -10.38793959	      6.14973352
      4.08000000	      3.83550806	     -2.46532534	   -101.81644825	      0.60075188	      0.92561142	      0.82437345	     11.05833822	     -9.91788997	     -2.06963557	    -65.14142403	     -2.37337768	      0.87367369	     16.23018339	      2.88433858	    -14.74799205	    -25.54648446	      6.41917052	     -4.16119283	     -4.42152765	    -10.46680444	      5.61872020
      4.09000000	      3.69930791	     -2.67344224	   -101.82292616	      0.60100834	      0.92647264	      0.82873126	     12.12493123	     -9.64971102	     -1.90035118	    -65.88050618	     -1.78948779	      0.84659878	     15.63393262	      2.90206055	    -14.74255893	    -25.45563696	      6.70646257	     -4.24714194	     -4.83693361	    -10.45903476	      5.04132763
      4.10000000	      3.54183255	     -2.84130026	   -101.81043413	      0.60116577	      0.92729089	      0.83282946	     13.18233780	     -9.25936094	     -1.66782237	    -66.41916830	     -1.23085923	      0.88270705	     15.10265017	      2.87478551	    -14.72177571	    -25.38431099	      6.92665877	     -4.56535308	     -5.22040379	    -10.42600582	      4.46325733
      4.11000000	      3.35439227	     -3.00442081	   -101.76886617	      0.60124054	      0.92812806	      0.83677690	     14.15750485	     -8.77046899	     -1.41225438	    -66.73188792	     -0.68021745	      1.05172315	     14.56180695	      2.81055560	    -14.65731667	    -25.28404074	      7.16693428	     -4.60684740	     -5.60442100	    -10.36034915	      3.86937064
      4.12000000	      3.13792850	     -3.14421034	   -101.68419584	      0.60128287	      0.92895334	      0.84059392	     15.06165500	     -8.20403811	     -1.16047185	    -66.82079852	     -0.17918620	      1.58521402	     14.04724251	      2.69762832	    -14.60421462	    -25.18365700	      7.39612304	     -4.70011225	     -5.97049594	    -10.24963305	      3.22381386
      4.13000000	      2.95645992	     -3.27772487	   -101.57921664	      0.60129428	      0.92973371	      0.84428925	     15.90549289	     -7.65832044	     -0.90223479	    -66.72312399	      0.39379262	      2.10781317	     13.53449182	      2.61942109	    -14.53281718	    -25.04310538	      7.60146098	     -4.70734887	     -6.32066671	    -10.17577302	      2.58848524
      4.14000000	      2.80544554	     -3.40433875	   -101.44686801	      0.60131543	      0.93047546	      0.84791734	     16.67486459	     -7.15501282	     -0.66440730	    -66.43505646	      1.00718547	      2.65695891	     13.01719595	      2.57296726	    -14.45989205	    -24.85606626	      7.78767132	     -4.68551552	     -6.65173800	    -10.12195455	      1.94607844
      4.15000000	      2.69509661	     -3.53758759	   -101.29211450	      0.60134638	      0.93118900	      0.85148096	     17.35899736	     -6.71899920	     -0.44053459	    -65.97137823	      1.62961393	      3.22709532	     12.48305458	      2.57472354	    -14.37255635	    -24.62209008	      7.94457519	     -4.65028944	     -6.97725290	    -10.10539622	      1.31309955
      4.16000000	      2.62666032	     -3.67421316	   -101.10967307	      0.60141676	      0.93186025	      0.85501464	     17.95520907	     -6.37407220	     -0.25969154	    -65.34250057	      2.27913566	      3.70202847	     11.93876313	      2.62459038	    -14.28578979	    -24.35134045	      8.08512750	     -4.61258566	     -7.29132114	    -10.12454547	      0.67566673
